G04 (created by PCBNEW (2013-may-18)-stable) date Fri 29 Jul 2016 08:50:58 PM PDT*
%MOIN*%
G04 Gerber Fmt 3.4, Leading zero omitted, Abs format*
%FSLAX34Y34*%
G01*
G70*
G90*
G04 APERTURE LIST*
%ADD10C,0.00590551*%
G04 APERTURE END LIST*
G54D10*
X34647Y-27115D02*
X34666Y-27171D01*
X34685Y-27190D01*
X34722Y-27209D01*
X34778Y-27209D01*
X34816Y-27190D01*
X34835Y-27171D01*
X34853Y-27134D01*
X34853Y-26984D01*
X34460Y-26984D01*
X34460Y-27115D01*
X34478Y-27153D01*
X34497Y-27171D01*
X34535Y-27190D01*
X34572Y-27190D01*
X34610Y-27171D01*
X34628Y-27153D01*
X34647Y-27115D01*
X34647Y-26984D01*
X34741Y-27359D02*
X34741Y-27546D01*
X34853Y-27321D02*
X34460Y-27453D01*
X34853Y-27584D01*
X34460Y-27659D02*
X34460Y-27884D01*
X34853Y-27771D02*
X34460Y-27771D01*
X34460Y-27959D02*
X34460Y-28184D01*
X34853Y-28071D02*
X34460Y-28071D01*
X34647Y-28315D02*
X34647Y-28446D01*
X34853Y-28503D02*
X34853Y-28315D01*
X34460Y-28315D01*
X34460Y-28503D01*
X34853Y-28896D02*
X34666Y-28765D01*
X34853Y-28671D02*
X34460Y-28671D01*
X34460Y-28821D01*
X34478Y-28859D01*
X34497Y-28878D01*
X34535Y-28896D01*
X34591Y-28896D01*
X34628Y-28878D01*
X34647Y-28859D01*
X34666Y-28821D01*
X34666Y-28671D01*
X34666Y-29140D02*
X34853Y-29140D01*
X34460Y-29009D02*
X34666Y-29140D01*
X34460Y-29271D01*
M02*
