M48
INCH,TZ
T1C0.025
T2C0.040
%
G90
G05
T1
X38000Y-28700
X39000Y-24100
X39000Y-24800
X39100Y-21900
X39400Y-26000
X40900Y-21400
X41000Y-25500
X42800Y-23700
X43600Y-26900
X46496Y-27402
X46500Y-26900
T2
X33700Y-23100
X33700Y-24900
X33700Y-27100
X33700Y-28900
X33700Y-31100
X33700Y-32900
X34000Y-21000
X35000Y-21000
X36000Y-21000
X36300Y-23100
X36300Y-24900
X36300Y-27100
X36300Y-28900
X36300Y-31100
X36300Y-32900
X38500Y-19900
X39500Y-19900
X40500Y-19900
X41500Y-19900
X44000Y-21000
X45000Y-21000
X45000Y-23500
X45000Y-24500
X45000Y-25500
X46000Y-21000
X46000Y-23500
X46000Y-24500
X46000Y-25500
T0
M30
