G04 (created by PCBNEW (2013-may-18)-stable) date Fri 29 Jul 2016 08:50:58 PM PDT*
%MOIN*%
G04 Gerber Fmt 3.4, Leading zero omitted, Abs format*
%FSLAX34Y34*%
G01*
G70*
G90*
G04 APERTURE LIST*
%ADD10C,0.00590551*%
%ADD11R,0.05X0.02*%
%ADD12R,0.025X0.045*%
%ADD13C,0.0688976*%
%ADD14R,0.045X0.025*%
%ADD15C,0.035*%
%ADD16C,0.01*%
G04 APERTURE END LIST*
G54D10*
G54D11*
X41900Y-27250D03*
X41900Y-26750D03*
X41900Y-26250D03*
X41900Y-25750D03*
X41900Y-25250D03*
X41900Y-24750D03*
X41900Y-24250D03*
X41900Y-23750D03*
X41900Y-23250D03*
X41900Y-22750D03*
X38100Y-22750D03*
X38100Y-23250D03*
X38100Y-23750D03*
X38100Y-24250D03*
X38100Y-24750D03*
X38100Y-25250D03*
X38100Y-25750D03*
X38100Y-26250D03*
X38100Y-26750D03*
X38100Y-27250D03*
G54D12*
X37700Y-21400D03*
X38300Y-21400D03*
X39600Y-21400D03*
X40200Y-21400D03*
X41500Y-21400D03*
X42100Y-21400D03*
X45800Y-27600D03*
X45200Y-27600D03*
G54D13*
X45000Y-24500D03*
X46000Y-24500D03*
X46000Y-23500D03*
X45000Y-23500D03*
X45000Y-25500D03*
X46000Y-25500D03*
X33700Y-31100D03*
X36300Y-31100D03*
X36300Y-32900D03*
X33700Y-32900D03*
X33700Y-27100D03*
X36300Y-27100D03*
X36300Y-28900D03*
X33700Y-28900D03*
X33700Y-23100D03*
X36300Y-23100D03*
X36300Y-24900D03*
X33700Y-24900D03*
X45000Y-21000D03*
X46000Y-21000D03*
X44000Y-21000D03*
X35000Y-21000D03*
X36000Y-21000D03*
X34000Y-21000D03*
X41500Y-19900D03*
X40500Y-19900D03*
X39500Y-19900D03*
X38500Y-19900D03*
G54D14*
X40400Y-31700D03*
X40400Y-32300D03*
X38800Y-31700D03*
X38800Y-32300D03*
X40400Y-29800D03*
X40400Y-29200D03*
X38800Y-29800D03*
X38800Y-29200D03*
G54D15*
X46500Y-26900D03*
X43600Y-26900D03*
X41000Y-25500D03*
X38000Y-28700D03*
X39000Y-24100D03*
X39100Y-21900D03*
X39400Y-26000D03*
X39000Y-24800D03*
X40900Y-21400D03*
X42800Y-23700D03*
X46496Y-27401D03*
G54D16*
X41900Y-24250D02*
X42550Y-24250D01*
X46900Y-24500D02*
X46000Y-24500D01*
X46900Y-26500D02*
X46900Y-24500D01*
X46500Y-26900D02*
X46900Y-26500D01*
X43600Y-25300D02*
X43600Y-26900D01*
X42550Y-24250D02*
X43600Y-25300D01*
X38100Y-23750D02*
X37750Y-23750D01*
X37200Y-21900D02*
X37700Y-21400D01*
X37200Y-23200D02*
X37200Y-21900D01*
X37750Y-23750D02*
X37200Y-23200D01*
X45000Y-25500D02*
X45000Y-27400D01*
X45000Y-27400D02*
X45200Y-27600D01*
X38550Y-22750D02*
X38100Y-22750D01*
X39000Y-23200D02*
X38550Y-22750D01*
X39000Y-23500D02*
X39000Y-23200D01*
X41000Y-25500D02*
X39000Y-23500D01*
X38100Y-28600D02*
X38100Y-27250D01*
X38000Y-28700D02*
X38100Y-28600D01*
X40500Y-19900D02*
X40500Y-19100D01*
X33000Y-19100D02*
X33000Y-21000D01*
X40500Y-19100D02*
X33000Y-19100D01*
X33000Y-21000D02*
X33100Y-21000D01*
X33000Y-28900D02*
X33000Y-32900D01*
X33000Y-32900D02*
X33700Y-32900D01*
X33000Y-24900D02*
X33000Y-28900D01*
X33000Y-28900D02*
X33700Y-28900D01*
X34000Y-21000D02*
X33100Y-21000D01*
X33100Y-21000D02*
X33000Y-21000D01*
X33000Y-24900D02*
X33700Y-24900D01*
X33000Y-21000D02*
X33000Y-24900D01*
X35000Y-21000D02*
X34000Y-21000D01*
X36300Y-24900D02*
X33700Y-24900D01*
X40400Y-32300D02*
X38600Y-32300D01*
X38000Y-32900D02*
X36300Y-32900D01*
X38600Y-32300D02*
X38000Y-32900D01*
X36300Y-32900D02*
X33700Y-32900D01*
X36300Y-28900D02*
X33700Y-28900D01*
X41500Y-19900D02*
X41500Y-20800D01*
X41500Y-20800D02*
X42100Y-21400D01*
X39600Y-21400D02*
X39100Y-21900D01*
X38850Y-24250D02*
X38100Y-24250D01*
X39000Y-24100D02*
X38850Y-24250D01*
X39500Y-19900D02*
X39500Y-20700D01*
X39500Y-20700D02*
X40200Y-21400D01*
X38500Y-19900D02*
X38500Y-21200D01*
X38500Y-21200D02*
X38300Y-21400D01*
X41900Y-26750D02*
X41250Y-26750D01*
X40400Y-27600D02*
X40400Y-29200D01*
X41250Y-26750D02*
X40400Y-27600D01*
X38800Y-29800D02*
X38800Y-31700D01*
X40400Y-29800D02*
X40400Y-31700D01*
X41900Y-26250D02*
X40450Y-26250D01*
X39500Y-28500D02*
X38800Y-29200D01*
X39500Y-27200D02*
X39500Y-28500D01*
X40450Y-26250D02*
X39500Y-27200D01*
X36300Y-23100D02*
X33700Y-23100D01*
X38100Y-25250D02*
X37350Y-25250D01*
X37300Y-24100D02*
X36300Y-23100D01*
X37300Y-25200D02*
X37300Y-24100D01*
X37350Y-25250D02*
X37300Y-25200D01*
X41900Y-22750D02*
X42250Y-22750D01*
X42250Y-22750D02*
X44000Y-21000D01*
X44000Y-21000D02*
X45000Y-21000D01*
X38650Y-26750D02*
X38100Y-26750D01*
X39400Y-26000D02*
X38650Y-26750D01*
X36300Y-31100D02*
X33700Y-31100D01*
X38100Y-26250D02*
X37750Y-26250D01*
X37300Y-30100D02*
X36300Y-31100D01*
X37300Y-26700D02*
X37300Y-30100D01*
X37750Y-26250D02*
X37300Y-26700D01*
X36300Y-27100D02*
X33700Y-27100D01*
X38100Y-25750D02*
X37650Y-25750D01*
X37650Y-25750D02*
X36300Y-27100D01*
X41500Y-21400D02*
X40900Y-21400D01*
X38950Y-24750D02*
X38100Y-24750D01*
X39000Y-24800D02*
X38950Y-24750D01*
X41900Y-23750D02*
X42750Y-23750D01*
X42750Y-23750D02*
X42800Y-23700D01*
X45000Y-24500D02*
X44300Y-24500D01*
X43050Y-23250D02*
X41900Y-23250D01*
X44300Y-24500D02*
X43050Y-23250D01*
X45800Y-27600D02*
X46297Y-27600D01*
X46297Y-27600D02*
X46496Y-27401D01*
X46000Y-21000D02*
X46000Y-23500D01*
M02*
